<?xml version="1.0" encoding="UTF-8"?>
<svg version="1.1" xmlns="http://www.w3.org/2000/svg" width="512" height="512">
<path d="M0 0 C1.16871273 -0.00551503 1.16871273 -0.00551503 2.36103582 -0.01114148 C4.96852118 -0.02214313 7.57596663 -0.02601621 10.18347168 -0.02983093 C12.05471929 -0.03609837 13.92596567 -0.04274542 15.79721069 -0.04974365 C21.94092954 -0.07075774 28.08464856 -0.08114539 34.22839355 -0.09111023 C36.3470206 -0.09515915 38.46564751 -0.09927611 40.58427429 -0.10346031 C50.54165357 -0.12250825 60.49902547 -0.13673863 70.45641947 -0.14507228 C81.93112935 -0.15483551 93.40564586 -0.18113291 104.88028765 -0.22157317 C113.76119918 -0.25179242 122.64205548 -0.26654677 131.52301741 -0.26985329 C136.82138627 -0.27219764 142.11954847 -0.2810776 147.41786194 -0.30631447 C152.40838593 -0.32970116 157.39856874 -0.333786 162.38913345 -0.32355309 C164.21232874 -0.32306014 166.03554142 -0.32930865 167.85868454 -0.34310913 C181.1246115 -0.43783939 193.71438416 0.13354066 204.26745605 9.23701477 C213.43447689 18.311252 216.5931225 27.6369115 216.73232937 40.32010651 C216.73952966 43.01067185 216.72733699 45.70077161 216.71472168 48.39131165 C216.72014837 50.337133 216.72727408 52.28295024 216.73596191 54.22875977 C216.75413311 59.49117119 216.74715336 64.75326748 216.73444557 70.01568413 C216.72428572 75.5349853 216.73371953 81.05426033 216.73999023 86.57356262 C216.74725795 95.84049805 216.7377019 105.10730578 216.71862793 114.3742218 C216.69686094 125.07274883 216.70391293 135.77097089 216.72593355 146.46949053 C216.74411249 155.67149727 216.74663367 164.87341244 216.73617887 174.07543135 C216.72995767 179.56418319 216.72907051 185.0527919 216.74232483 190.54153442 C216.75391898 195.70288104 216.74579247 200.86383622 216.7227478 206.02514076 C216.71747974 207.91408451 216.71894171 209.80306147 216.72779846 211.69199181 C216.79000826 226.31300308 215.08863643 236.91369765 204.57214355 247.83467102 C196.99776143 254.8479878 188.460483 257.29684938 178.34922791 257.29434204 C177.55319517 257.29801873 176.75716243 257.30169542 175.93700749 257.30548352 C173.26647014 257.31650677 170.59597172 257.32036193 167.92541504 257.32417297 C166.01166155 257.33043875 164.09790927 257.33708565 162.18415833 257.34408569 C155.89552659 257.36511841 149.60689464 257.37548871 143.3182373 257.38545227 C141.1515864 257.3895004 138.98493563 257.39361734 136.81828499 257.39780235 C126.63665325 257.41685385 116.45502874 257.43108386 106.2733826 257.43941432 C94.5309323 257.44918097 82.7886708 257.4754858 71.046287 257.51591522 C61.96415469 257.54610903 52.88207639 257.56088638 43.79989487 257.56419533 C38.37861603 257.56654247 32.95753889 257.57545898 27.53631401 257.60065651 C22.43172382 257.6239987 17.32746725 257.62814571 12.22283745 257.61789513 C10.35526416 257.61740112 8.48767411 257.62368149 6.62015152 257.63745117 C-8.04016154 257.73944561 -19.59684409 256.22502543 -30.4864502 245.48701477 C-37.44091299 237.87352557 -39.95003941 230.37348312 -39.95675659 220.1920929 C-39.96113885 219.38451507 -39.9655211 218.57693724 -39.97003615 217.74488735 C-39.98340453 215.03522952 -39.98959867 212.32560421 -39.99572754 209.61592102 C-40.00363022 207.67423354 -40.01189927 205.73254752 -40.02050781 203.79086304 C-40.04671451 197.4096466 -40.06203675 191.02842367 -40.07629395 184.64717102 C-40.08165468 182.44834896 -40.08703219 180.24952694 -40.0924263 178.05070496 C-40.11405538 168.90089486 -40.13279016 159.75108651 -40.14404869 150.60125732 C-40.16027461 137.5015821 -40.19341934 124.4022041 -40.25044954 111.30264091 C-40.28920434 102.08546385 -40.3086881 92.86836608 -40.31396925 83.6511097 C-40.31761584 78.14982437 -40.32956323 72.64885617 -40.36207199 67.1476593 C-40.39224901 61.96668579 -40.39843006 56.78621968 -40.38668823 51.60517693 C-40.38646829 49.71060223 -40.39470747 47.81600333 -40.41234207 45.9215107 C-40.53288289 32.21826437 -39.27220957 20.61875951 -29.31848145 10.19013977 C-20.67065721 3.16713966 -11.05039223 -0.00281536 0 0 Z M-6.80285645 35.14717102 C-7.8820287 38.3846878 -7.91711246 40.72468874 -7.9005127 44.12763977 C-7.89801514 45.17588928 -7.89551758 46.22413879 -7.89294434 47.30415344 C-7.88384033 48.63422424 -7.87473633 49.96429504 -7.86535645 51.33467102 C-7.84473145 55.56279602 -7.82410645 59.79092102 -7.80285645 64.14717102 C6.05714355 64.14717102 19.91714355 64.14717102 34.19714355 64.14717102 C34.19714355 53.91717102 34.19714355 43.68717102 34.19714355 33.14717102 C28.84007754 33.10127517 23.48369284 33.06144537 18.12658691 33.03730774 C16.30397226 33.02724611 14.48137376 33.01359542 12.65881348 32.99629211 C10.04003921 32.97205081 7.42147824 32.96068964 4.8026123 32.95185852 C3.98689255 32.94153595 3.17117279 32.93121338 2.33073425 32.920578 C-1.574164 32.91980242 -3.47809653 32.93066441 -6.80285645 35.14717102 Z M67.19714355 33.14717102 C67.19714355 43.37717102 67.19714355 53.60717102 67.19714355 64.14717102 C81.05714355 64.14717102 94.91714355 64.14717102 109.19714355 64.14717102 C109.19714355 53.91717102 109.19714355 43.68717102 109.19714355 33.14717102 C95.33714355 33.14717102 81.47714355 33.14717102 67.19714355 33.14717102 Z M142.19714355 33.14717102 C142.19714355 43.37717102 142.19714355 53.60717102 142.19714355 64.14717102 C156.05714355 64.14717102 169.91714355 64.14717102 184.19714355 64.14717102 C184.23839355 59.93967102 184.27964355 55.73217102 184.32214355 51.39717102 C184.34035156 50.07620422 184.35855957 48.75523743 184.37731934 47.39424133 C184.38231445 46.34848938 184.38730957 45.30273743 184.39245605 44.22529602 C184.40292969 43.15698547 184.41340332 42.08867493 184.42419434 40.98799133 C184.19636355 38.13741176 183.76402103 36.51639427 182.19714355 34.14717102 C178.9182243 32.50771139 175.29100822 33.02686924 171.68933105 33.04951477 C170.84871124 33.05092972 170.00809143 33.05234467 169.14199829 33.05380249 C166.4520108 33.05940865 163.76210597 33.07196216 161.07214355 33.08467102 C159.25053017 33.08968523 157.42891549 33.09424827 155.6072998 33.0983429 C151.13719011 33.10853002 146.66725956 33.12810417 142.19714355 33.14717102 Z M-7.80285645 193.14717102 C-7.86473145 197.33404602 -7.92660645 201.52092102 -7.99035645 205.83467102 C-8.01766846 207.14653381 -8.04498047 208.45839661 -8.07312012 209.81001282 C-8.08061279 210.85326721 -8.08810547 211.89652161 -8.0958252 212.97138977 C-8.11153564 214.0344635 -8.12724609 215.09753723 -8.14343262 216.19282532 C-7.72967077 219.78202395 -7.30907027 221.50372935 -4.80285645 224.14717102 C-1.67558903 224.59993251 0.90132783 224.73158117 4.0213623 224.63545227 C4.88276321 224.62837753 5.74416412 224.6213028 6.63166809 224.61401367 C9.38354269 224.58601941 12.13338388 224.52327425 14.88464355 224.45967102 C16.74984855 224.43459454 18.61508543 224.41178023 20.48034668 224.39131165 C25.05402612 224.34042514 29.62330903 224.24259177 34.19714355 224.14717102 C34.19714355 213.91717102 34.19714355 203.68717102 34.19714355 193.14717102 C20.33714355 193.14717102 6.47714355 193.14717102 -7.80285645 193.14717102 Z M67.19714355 193.14717102 C67.19714355 203.37717102 67.19714355 213.60717102 67.19714355 224.14717102 C81.05714355 224.14717102 94.91714355 224.14717102 109.19714355 224.14717102 C109.19714355 213.91717102 109.19714355 203.68717102 109.19714355 193.14717102 C95.33714355 193.14717102 81.47714355 193.14717102 67.19714355 193.14717102 Z M142.19714355 193.14717102 C142.19714355 203.37717102 142.19714355 213.60717102 142.19714355 224.14717102 C147.69771123 224.26192556 153.19413542 224.36146566 158.69494629 224.42182922 C160.56618309 224.4469868 162.4373215 224.48111695 164.30822754 224.52436829 C166.99670659 224.58496779 169.68388791 224.61336705 172.3729248 224.63545227 C173.21051834 224.6612587 174.04811188 224.68706512 174.91108704 224.71365356 C177.54657855 224.77160509 177.54657855 224.77160509 181.19714355 224.14717102 C184.4395925 220.72718164 184.55778399 217.55050708 184.4901123 212.97138977 C184.48261963 211.92813538 184.47512695 210.88488098 184.46740723 209.81001282 C184.44009521 208.49815002 184.4127832 207.18628723 184.38464355 205.83467102 C184.32276855 201.64779602 184.26089355 197.46092102 184.19714355 193.14717102 C170.33714355 193.14717102 156.47714355 193.14717102 142.19714355 193.14717102 Z " fill="#000000" transform="translate(55.8028564453125,121.85282897949219)"/>
<path d="M0 0 C0.80890182 -0.0065712 1.61780365 -0.0131424 2.45121765 -0.01991272 C5.12112537 -0.03957636 7.79097687 -0.05129607 10.4609375 -0.0612793 C11.83637222 -0.06739259 11.83637222 -0.06739259 13.23959351 -0.07362938 C18.09804048 -0.09446583 22.95645947 -0.10877509 27.81494141 -0.11816406 C32.8033036 -0.12919198 37.79121525 -0.16355691 42.77941895 -0.20333576 C46.64020547 -0.22964013 50.50088715 -0.23786834 54.36175537 -0.24144554 C56.19874089 -0.24627997 58.03572274 -0.25780276 59.87261963 -0.27648354 C73.41990948 -0.40563593 86.09709543 -0.05753489 96.90625 9.2668457 C106.07327084 18.34108293 109.23191645 27.66674243 109.37112331 40.34993744 C109.37832361 43.04050278 109.36613093 45.73060255 109.35351562 48.42114258 C109.35894231 50.36696393 109.36606803 52.31278117 109.37475586 54.2585907 C109.39292706 59.52100213 109.3859473 64.78309842 109.37323952 70.04551506 C109.36307967 75.56481624 109.37251347 81.08409127 109.37878418 86.60339355 C109.38605189 95.87032899 109.37649585 105.13713671 109.35742188 114.40405273 C109.33565489 125.10257976 109.34270688 135.80080182 109.3647275 146.49932146 C109.38290643 155.7013282 109.38542762 164.90324338 109.37497282 174.10526228 C109.36875162 179.59401412 109.36786445 185.08262283 109.38111877 190.57136536 C109.39271293 195.73271197 109.38458642 200.89366716 109.36154175 206.05497169 C109.35627369 207.94391545 109.35773566 209.8328924 109.36659241 211.72182274 C109.42880221 226.34283401 107.72743038 236.94352858 97.2109375 247.86450195 C89.43765607 255.06198476 80.73306122 257.31925171 70.38647461 257.35400391 C69.53549194 257.3605751 68.68450928 257.3671463 67.80773926 257.37391663 C64.99291895 257.39361608 62.17815202 257.40530722 59.36328125 257.4152832 C58.39878115 257.41935873 57.43428104 257.42343426 56.44055367 257.42763329 C51.33154643 257.4484837 46.22256595 257.46278765 41.11352539 257.47216797 C35.85702847 257.48320635 30.60095789 257.51757956 25.34461117 257.55733967 C21.28574379 257.5835912 17.22697648 257.59186756 13.16803169 257.59544945 C11.23170671 257.60029646 9.29538562 257.61185613 7.35914421 257.63048744 C-6.964455 257.75970458 -18.74096952 256.99844544 -29.7890625 246.73950195 C-30.5728125 245.89387695 -31.3565625 245.04825195 -32.1640625 244.17700195 C-32.8446875 243.45512695 -33.5253125 242.73325195 -34.2265625 241.98950195 C-39.61866243 234.16226012 -41.31362894 225.76367419 -41.31123352 216.41210938 C-41.31491021 215.63705111 -41.3185869 214.86199284 -41.322375 214.06344795 C-41.33337612 211.4697821 -41.33724964 208.87615636 -41.34106445 206.2824707 C-41.34733193 204.42107517 -41.35397899 202.55968089 -41.36097717 200.69828796 C-41.38199082 194.58703478 -41.39237889 188.47578142 -41.40234375 182.36450195 C-41.40639269 180.25701891 -41.41050965 178.149536 -41.41469383 176.04205322 C-41.4337417 166.13699968 -41.44797207 156.23195356 -41.4563058 146.32688522 C-41.46606891 134.91273542 -41.49236602 123.49878002 -41.53280669 112.08469868 C-41.56302672 103.25049588 -41.57778036 94.41634861 -41.58108681 85.58209515 C-41.58343108 80.31167149 -41.59230993 75.04145561 -41.61754799 69.77108765 C-41.64093605 64.80682796 -41.64501898 59.84291125 -41.63478661 54.87861061 C-41.63429369 53.06509061 -41.64054123 51.25155311 -41.65434265 49.43808556 C-41.7632283 34.27170793 -40.22193011 21.66433743 -29.3515625 10.27856445 C-21.00008836 2.2975186 -11.2736833 0.0400758 0 0 Z M-8.1640625 37.17700195 C-8.71331028 40.16931741 -8.71331028 40.16931741 -8.5546875 43.47387695 C-8.54179687 44.67915039 -8.52890625 45.88442383 -8.515625 47.1262207 C-8.48210937 48.38047852 -8.44859375 49.63473633 -8.4140625 50.92700195 C-8.39601563 52.19672852 -8.37796875 53.46645508 -8.359375 54.7746582 C-8.31224062 57.90909454 -8.24049808 61.04314325 -8.1640625 64.17700195 C0.4159375 64.17700195 8.9959375 64.17700195 17.8359375 64.17700195 C17.8359375 53.94700195 17.8359375 43.71700195 17.8359375 33.17700195 C14.2884375 33.09450195 10.7409375 33.01200195 7.0859375 32.92700195 C5.97379883 32.89058594 4.86166016 32.85416992 3.71582031 32.81665039 C2.83249023 32.80666016 1.94916016 32.79666992 1.0390625 32.78637695 C0.13833008 32.76542969 -0.76240234 32.74448242 -1.69042969 32.72290039 C-5.05916713 33.34132238 -6.17866174 34.40885123 -8.1640625 37.17700195 Z M50.8359375 33.17700195 C50.8359375 43.40700195 50.8359375 53.63700195 50.8359375 64.17700195 C59.4159375 64.17700195 67.9959375 64.17700195 76.8359375 64.17700195 C76.8978125 57.86575195 76.8978125 57.86575195 76.9609375 51.42700195 C76.98824951 49.44555176 76.98824951 49.44555176 77.01611328 47.42407227 C77.0211084 46.37832031 77.02610352 45.33256836 77.03125 44.25512695 C77.04172363 43.18681641 77.05219727 42.11850586 77.06298828 41.01782227 C76.8351575 38.16724269 76.40281498 36.54622521 74.8359375 34.17700195 C72.33096746 32.92451693 70.62740476 33.06325789 67.828125 33.0793457 C66.49563721 33.08309204 66.49563721 33.08309204 65.13623047 33.08691406 C64.00588379 33.09601807 62.87553711 33.10512207 61.7109375 33.11450195 C58.1221875 33.13512695 54.5334375 33.15575195 50.8359375 33.17700195 Z M-8.1640625 193.17700195 C-8.23297503 197.11012094 -8.29269157 201.04170011 -8.32885742 204.97509766 C-8.35134583 206.97027896 -8.38946448 208.96526408 -8.42773438 210.96020508 C-8.43740234 212.21381836 -8.44707031 213.46743164 -8.45703125 214.7590332 C-8.4727417 215.91636963 -8.48845215 217.07370605 -8.50463867 218.26611328 C-8.38123719 221.13197677 -8.38123719 221.13197677 -6.97851562 223.05981445 C-4.4958753 224.58841538 -2.74474254 224.5181182 0.16015625 224.4699707 C1.08658936 224.46247803 2.01302246 224.45498535 2.9675293 224.44726562 C4.140979 224.41995361 5.31442871 224.3926416 6.5234375 224.36450195 C10.2565625 224.30262695 13.9896875 224.24075195 17.8359375 224.17700195 C17.8359375 213.94700195 17.8359375 203.71700195 17.8359375 193.17700195 C9.2559375 193.17700195 0.6759375 193.17700195 -8.1640625 193.17700195 Z M50.8359375 193.17700195 C50.8359375 203.40700195 50.8359375 213.63700195 50.8359375 224.17700195 C54.5690625 224.28012695 58.3021875 224.38325195 62.1484375 224.48950195 C63.32188721 224.53502197 64.49533691 224.58054199 65.7043457 224.62744141 C66.63077881 224.6399292 67.55721191 224.65241699 68.51171875 224.6652832 C69.9335144 224.70455933 69.9335144 224.70455933 71.3840332 224.74462891 C74.02113086 224.39162658 74.02113086 224.39162658 75.65039062 222.0324707 C76.99852717 218.78539389 77.18073485 216.5082896 77.12890625 213.0012207 C77.12141357 211.95796631 77.1139209 210.91471191 77.10620117 209.83984375 C77.06523315 207.87204956 77.06523315 207.87204956 77.0234375 205.86450195 C76.9615625 201.67762695 76.8996875 197.49075195 76.8359375 193.17700195 C68.2559375 193.17700195 59.6759375 193.17700195 50.8359375 193.17700195 Z " fill="#000000" transform="translate(387.1640625,121.822998046875)"/>
<path d="M0 0 C0.81162598 -0.0071553 1.62325195 -0.01431061 2.45947266 -0.02168274 C3.3462822 -0.02437164 4.23309174 -0.02706055 5.14677429 -0.02983093 C6.08367096 -0.03640213 7.02056763 -0.04297333 7.9858551 -0.04974365 C11.08986998 -0.06947293 14.1938365 -0.08113787 17.29789734 -0.09111023 C18.35781576 -0.09518576 19.41773418 -0.09926128 20.50977135 -0.10346031 C26.11875082 -0.12431852 31.72770583 -0.13862187 37.3367157 -0.147995 C43.13067543 -0.15906457 48.92425167 -0.19347177 54.71807575 -0.23316669 C59.1730623 -0.25930565 63.62795704 -0.26768438 68.08301353 -0.27127647 C70.2188444 -0.27614871 72.354671 -0.28778073 74.49042702 -0.30631447 C77.4803526 -0.33064969 80.46928009 -0.32975108 83.45927429 -0.32279968 C84.34001114 -0.33560974 85.22074799 -0.3484198 86.12817383 -0.36161804 C91.58061577 -0.31545119 94.6687502 0.524104 98.99711609 4.14717102 C103.53993685 9.23937378 103.58603525 13.6469101 103.52836609 20.14717102 C103.53410645 21.5780304 103.53410645 21.5780304 103.53996277 23.03779602 C103.54267645 25.04822347 103.53535346 27.05868655 103.51860046 29.06904602 C103.49718318 32.13755889 103.51842075 35.20373054 103.54399109 38.27217102 C103.54134772 40.2305095 103.53622254 42.18884652 103.52836609 44.14717102 C103.53646301 45.05982727 103.54455994 45.97248352 103.55290222 46.91279602 C103.54029358 47.77388977 103.52768494 48.63498352 103.51469421 49.52217102 C103.51151184 50.2724054 103.50832947 51.02263977 103.50505066 51.79560852 C102.17596095 57.94883712 97.84988679 61.26202164 93.03050375 64.81448102 C76.76093997 76.85822935 61.68715583 90.48828961 58.43766785 111.26527405 C56.63574819 125.78401659 56.70481603 140.48638446 56.9275092 155.09276538 C57.0074307 160.48418027 57.01193954 165.87129587 56.96805573 171.2630806 C56.96180866 172.04056059 56.95556159 172.81804059 56.94912522 173.61908058 C56.93614615 175.20026352 56.92301876 176.78144524 56.90974495 178.36262573 C56.7948181 193.07365799 56.90506794 207.77613263 57.09592673 222.48594071 C57.25298087 235.01039548 57.21029978 247.52126051 57.02250671 260.04512024 C56.80264063 274.71199354 56.71441539 289.37071296 56.82286239 304.03909695 C56.83414114 305.61394004 56.84524723 307.18878437 56.85617828 308.76362991 C56.86431844 309.92482974 56.86431844 309.92482974 56.87262304 311.10948815 C56.90155386 316.47140474 56.84063422 321.82763407 56.74272919 327.18857956 C55.73249877 365.6616796 55.73249877 365.6616796 73.54428744 398.56154501 C81.45299411 406.70431376 90.12454271 413.96677591 99.31039786 420.62342846 C101.75981276 422.8361737 102.85138031 424.99673477 103.26454163 428.25822449 C103.27216522 429.01290009 103.27978882 429.76757568 103.28764343 430.54512024 C103.30040314 431.40636505 103.31316284 432.26760986 103.3263092 433.154953 C103.32853485 434.07793182 103.3307605 435.00091064 103.33305359 435.95185852 C103.34303879 437.38696274 103.34303879 437.38696274 103.35322571 438.85105896 C103.36334251 440.87340881 103.36804303 442.89579198 103.36772156 444.91816711 C103.37209062 448.00417919 103.40840931 451.08875603 103.44633484 454.17451477 C103.4522041 456.14195781 103.45617276 458.10940763 103.45805359 460.07685852 C103.47242462 460.99578888 103.48679565 461.91471924 103.50160217 462.86149597 C103.46198675 468.4468813 102.87105239 471.82013333 98.99711609 476.14717102 C93.83550478 480.45563873 89.93558747 480.72416847 83.50688171 480.66474915 C82.56954697 480.67175842 81.63221222 480.6787677 80.66647339 480.68598938 C77.5784666 480.70354609 74.49138166 480.69195461 71.40336609 480.67842102 C69.25154953 480.68111659 67.09973415 480.68499956 64.94792175 480.6900177 C60.44222902 480.69590961 55.93685388 480.68735943 51.43119812 480.6686554 C45.66078155 480.64586632 39.89110919 480.65899101 34.12071991 480.68294525 C29.67855744 480.69741134 25.2365709 480.69279345 20.79440308 480.68243408 C18.66697094 480.67976905 16.53952275 480.68302866 14.41210938 480.69235229 C11.4367604 480.70253096 8.46261033 480.68699778 5.48735046 480.66474915 C4.61132675 480.67284607 3.73530304 480.68094299 2.83273315 480.68928528 C-2.5991548 480.61417908 -5.68689092 479.74661956 -10.00288391 476.14717102 C-14.90882969 470.71085272 -15.17014533 466.40911774 -15.20600891 459.31513977 C-15.21170898 458.44577286 -15.21740906 457.57640594 -15.22328186 456.68069458 C-15.23272669 454.840675 -15.23926379 453.00063854 -15.24311829 451.16059875 C-15.25281128 448.35568958 -15.28383401 445.55151723 -15.31538391 442.7467804 C-15.32191559 440.95707119 -15.32716541 439.16735676 -15.33100891 437.37763977 C-15.34335571 436.54306747 -15.35570251 435.70849518 -15.36842346 434.84863281 C-15.36542236 434.057939 -15.36242126 433.26724518 -15.35932922 432.45259094 C-15.36297485 431.76436752 -15.36662048 431.0761441 -15.37037659 430.36706543 C-14.11969299 422.81212431 -9.08251351 419.60137548 -3.36199951 415.31390381 C13.994148 401.45712496 28.28485909 387.8887572 31.23916596 365.04460365 C32.51482851 351.74390731 32.52845039 338.37391665 32.30555924 325.02626279 C32.21816642 319.64288654 32.21092308 314.26430197 32.25486946 308.88044548 C32.26113427 308.10352519 32.26739908 307.3266049 32.27385374 306.52614157 C32.28690022 304.94600729 32.30011035 303.36587437 32.31348199 301.78574281 C32.42887316 287.0923722 32.3079447 272.40856988 32.10148359 257.71667623 C31.93138198 245.21103752 31.96864492 232.71999152 32.1570282 220.21479797 C32.37766573 205.56346162 32.46345159 190.92080782 32.34679896 176.26799291 C32.334632 174.69456736 32.3226343 173.12114048 32.31080818 171.54771233 C32.30199413 170.38760853 32.30199413 170.38760853 32.29300202 169.20406829 C32.2611176 163.85054817 32.32088915 158.50292717 32.41836357 153.15036201 C33.31894627 114.47424395 33.31894627 114.47424395 15.14919502 81.48387879 C7.02303399 73.14302019 -1.87475837 65.68436524 -11.2793321 58.82894796 C-13.84059765 56.3297615 -14.82269775 53.58443116 -15.26358032 50.06771851 C-15.26818771 49.38632309 -15.2727951 48.70492767 -15.27754211 48.00288391 C-15.28707413 47.22179764 -15.29660614 46.44071136 -15.306427 45.63595581 C-15.30551559 44.80563339 -15.30460419 43.97531097 -15.30366516 43.11982727 C-15.30795029 42.25329025 -15.31223541 41.38675323 -15.31665039 40.49395752 C-15.32237934 38.66588716 -15.32290455 36.83779401 -15.31855774 35.00971985 C-15.3153984 32.22245666 -15.33887224 29.43625622 -15.36421204 26.64912415 C-15.36648534 24.86852652 -15.36718838 23.08792605 -15.36616516 21.30732727 C-15.37537491 20.47902908 -15.38458466 19.6507309 -15.39407349 18.79733276 C-15.34278447 12.33976771 -13.87857913 8.25732814 -9.50288391 3.33467102 C-6.34229344 0.56915436 -4.0613817 0.0246274 0 0 Z " fill="#000000" transform="translate(265.0028839111328,15.852828979492188)"/>
</svg>
